inDegrees=yes
name=ik_S49_A08_T01
DataType=double
version=3
OpenSimVersion=4.3-2021-08-27-4bc7ad9
endheader
time	pelvis_tilt	pelvis_list	pelvis_rotation	pelvis_tx	pelvis_ty	pelvis_tz	hip_flexion_r	hip_adduction_r	hip_rotation_r	knee_angle_r	knee_angle_r_beta	ankle_angle_r	subtalar_angle_r	mtp_angle_r	hip_flexion_l	hip_adduction_l	hip_rotation_l	knee_angle_l	knee_angle_l_beta	ankle_angle_l	subtalar_angle_l	mtp_angle_l	lumbar_extension	lumbar_bending	lumbar_rotation	arm_flex_r	arm_add_r	arm_rot_r	elbow_flex_r	pro_sup_r	wrist_flex_r	wrist_dev_r	arm_flex_l	arm_add_l	arm_rot_l	elbow_flex_l	pro_sup_l	wrist_flex_l	wrist_dev_l
12.83999999999982	-4.124766612113926	-1.379617296282467	27.86836217149678	0	0.9399999999999999	0	36.93934554489287	-11.69523779112213	-10.21868656564134	51.69555659681274	0.902257671265457	0	0	0	36.93934554489287	-11.69523779112213	-10.21868656564134	51.69555659681274	0.902257671265457	0	0	0	-4.166208285103421	-0.4264695454666669	-0.6764486709306644	30.73900875398964	-4.078478655578888	3.241812883075523	37.26180134662521	120.312414089649	0	4.310455369189608e-35	74.92448342250776	-19.55742331470047	4.193936115114282	88.74037756354413	112.7859415626134	0	4.310455369189608e-35
12.85999999999981	-4.130911803521158	-1.385414135044134	27.87612125819718	0	0.9399999999999999	0	36.94825890443408	-11.68676884847203	-10.21806134241102	51.69784030087125	0.9022975294204192	0	0	0	36.94825890443408	-11.68676884847203	-10.21806134241102	51.69784030087125	0.9022975294204192	0	0	0	-4.174498029799068	-0.4276382412685488	-0.6790331039934973	30.74376726208107	-4.093380002778477	3.264818358643826	37.29606164599244	120.2904071390754	0	0	74.91329514177198	-19.58211748825055	4.183427373228489	88.69906116851196	112.7616697376249	0	0
12.87999999999981	-4.137693317304346	-1.392031585678174	27.86980440470914	0	0.9399999999999999	0	36.95444379056303	-11.68110556045906	-10.21763729863398	51.69944581510653	0.9023255509300124	0	0	0	36.95444379056303	-11.68110556045906	-10.21763729863398	51.69944581510653	0.9023255509300124	0	0	0	-4.184015565189197	-0.4282084237552398	-0.696593213277276	30.74157756642221	-4.085386842601545	3.307656000672946	37.28255385189016	120.2928872791197	0	0	74.92404152790654	-19.62043912579048	4.163471389756967	88.54623880745925	112.7125192426959	0	0
12.89999999999981	-4.133970819780744	-1.392486020955296	27.87174481737111	0	0.9399999999999999	0	37.01214415825892	-11.64891947876305	-10.21461107901844	51.71582778835085	0.9026114703010996	0	0	0	37.01214415825892	-11.64891947876305	-10.21461107901844	51.71582778835085	0.9026114703010996	0	0	0	-4.181705316444521	-0.4237549530374242	-0.7010051644155759	30.72806661403578	-4.088535639833397	3.274973361875516	37.31576871568929	120.2802692310945	0	0	74.9455341838035	-19.66636583251627	4.159319170118212	88.33466605236009	112.6120484172985	0	0
12.91999999999981	-4.159280114164869	-1.413121940945943	27.90363323412108	0	0.9399999999999999	0	37.03135837515923	-11.63922631823334	-10.21365613167669	51.7213965948218	0.902708664309424	0	0	0	37.03135837515923	-11.63922631823334	-10.21365613167669	51.7213965948218	0.902708664309424	0	0	0	-4.214866955354967	-0.4243537019155699	-0.7450352936256658	30.79004443548015	-4.071838375146848	3.281476411117112	37.29762286836574	120.2928797618708	0	0	75.11075426457151	-19.73056082261893	4.159093222158158	87.97925991045102	112.4343733077101	0	0
12.93999999999981	-4.169929475263002	-1.420863538369048	27.90266688118618	0	0.9399999999999999	0	37.06018372077601	-11.62051679415828	-10.21202653115841	51.72939728507471	0.9028483026967694	0	0	0	37.06018372077601	-11.62051679415828	-10.21202653115841	51.72939728507471	0.9028483026967694	0	0	0	-4.228011570360513	-0.4239889162445865	-0.7351712082133629	30.8047692394279	-4.084383651197776	3.271372283989299	37.31308662463616	120.2737974032937	0	0	75.13955784806919	-19.73152061042354	4.17028123341788	87.64248636547886	112.1768313739206	0	0
12.95999999999981	-4.17130719598286	-1.424161260264683	27.93513727773646	0	0.9399999999999999	0	37.06249019458058	-11.61892098100575	-10.21189185429097	51.73004019112285	0.9028595235240904	0	0	0	37.06249019458058	-11.61892098100575	-10.21189185429097	51.73004019112285	0.9028595235240904	0	0	0	-4.231529502077695	-0.4227860967056977	-0.7746668991633162	30.72307209376593	-4.098841690632706	3.292590258706793	37.40363565693041	120.2586437025755	0	0	75.13481209656533	-19.87289114697843	4.102462455914234	87.17804141224819	111.5511108664584	0	0
